<svg id="Layer_1" data-name="Layer 1" xmlns="http://www.w3.org/2000/svg" viewBox="0 0 76.07 117.15"><defs><style>.cls-1,.cls-2{stroke:#000;stroke-width:0.75px;}.cls-1,.cls-2,.cls-4{stroke-miterlimit:10;}.cls-2,.cls-3,.cls-4{fill:#fff;}.cls-4{stroke:#fff;stroke-width:0.3px;}</style></defs><title>VIT_firstclass_logo</title><polygon class="cls-1" points="0.38 0.38 0.38 83.29 9.01 91.92 9.01 65.55 18.42 65.55 18.42 101.34 33.33 116.24 33.33 65.55 42.74 65.55 42.74 116.24 57.65 101.34 57.34 65.55 67.06 65.55 67.06 91.92 75.69 83.29 75.69 0.38 0.38 0.38"/><polygon class="cls-2" points="38.03 41.39 40.76 46.9 46.85 47.79 42.44 52.08 43.48 58.15 38.03 55.29 32.59 58.15 33.63 52.08 29.22 47.79 35.31 46.9 38.03 41.39"/><polygon class="cls-2" points="61.57 41.39 64.29 46.9 70.38 47.79 65.98 52.08 67.02 58.15 61.57 55.29 56.12 58.15 57.16 52.08 52.76 47.79 58.85 46.9 61.57 41.39"/><polygon class="cls-2" points="14.5 41.39 17.22 46.9 23.31 47.79 18.9 52.08 19.94 58.15 14.5 55.29 9.05 58.15 10.09 52.08 5.68 47.79 11.77 46.9 14.5 41.39"/><path class="cls-3" d="M143.63,85.67c-.15.38-1.4,3.9-3.08,7.76L136,103.82h-5.69q-2.12-4.86-4.06-9.31c-1.3-3-2.55-6.88-3.33-8.84l5.19.06q.18.55,1.89,4.9c1.15,2.89,2.23,6.25,3.26,8.71h.09c1.07-2.64,2.18-6.07,3.33-8.92s1.76-4.41,1.86-4.69Z" transform="translate(-106.31 -78.76)"/><path class="cls-3" d="M148.48,103.68h-4c0-.39,0-1.23,0-2.5s0-2.46,0-3.57v-3c0-1,0-2.18,0-3.47h4c0,1.17,0,2.21,0,3.13s0,2,0,3.12c0,1.86,0,3.27,0,4.24S148.48,103.31,148.48,103.68Z" transform="translate(-106.31 -78.76)"/><path class="cls-3" d="M165.75,89.7h-2.11l-3,0c0,1.38,0,2.48,0,3.31s0,1.91,0,3.24c0,1.49,0,2.94,0,4.34s0,2.43,0,3.12h-5.73q0-1,0-3c0-1.35,0-2.84,0-4.48V93.11c0-.84,0-2,0-3.44l-3.15,0h-2V86.11h16.05Z" transform="translate(-106.31 -78.76)"/><polygon class="cls-3" points="40.15 6.25 40.95 7.88 42.75 8.14 41.45 9.41 41.76 11.2 40.15 10.35 38.54 11.2 38.85 9.41 37.55 8.14 39.35 7.88 40.15 6.25"/><path class="cls-4" d="M115.31,114.09l-3.47-1.43s-.06,0-.08-.08a.3.3,0,0,1,0-.26s0-.07.08-.08l3.42-1.43h0a.17.17,0,0,1,.12.06.3.3,0,0,1,0,.15.12.12,0,0,1-.08.12l-3.19,1.3,3.23,1.31a.15.15,0,0,1,.1.15.19.19,0,0,1,0,.14.14.14,0,0,1-.12.06Z" transform="translate(-106.31 -78.76)"/><path class="cls-4" d="M117.34,115.39a.1.1,0,0,1,0-.07l2.62-5.24A.17.17,0,0,1,120,110l.09,0a.2.2,0,0,1,.13,0,.16.16,0,0,1,0,.11.31.31,0,0,1,0,.08l-2.62,5.23a.15.15,0,0,1-.15.1.18.18,0,0,1-.12,0A.16.16,0,0,1,117.34,115.39Z" transform="translate(-106.31 -78.76)"/><path class="cls-4" d="M125.35,110.14v.46a.19.19,0,0,1,0,.16.2.2,0,0,1-.14.06.21.21,0,0,1-.13,0,.2.2,0,0,1,0-.15v-.37a2,2,0,0,0-.72.15.71.71,0,0,0-.36.34,1.44,1.44,0,0,0-.1.6v.26H125a.14.14,0,0,1,.11.05.17.17,0,0,1,0,.11.16.16,0,0,1,0,.12.17.17,0,0,1-.12.05h-1.22v2.37h1.42a.17.17,0,0,1,.12,0,.21.21,0,0,1,0,.11.25.25,0,0,1,0,.12.16.16,0,0,1-.12,0h-2.66a.17.17,0,0,1-.14-.05.17.17,0,0,1,0-.22.13.13,0,0,1,.12,0h.87v-2.37h-.75a.22.22,0,0,1-.14-.05.17.17,0,0,1,0-.12.15.15,0,0,1,0-.11.17.17,0,0,1,.12-.05h.77v-.28a1.22,1.22,0,0,1,.45-1,2,2,0,0,1,1.27-.34.28.28,0,0,1,.16,0A.2.2,0,0,1,125.35,110.14Z" transform="translate(-106.31 -78.76)"/><path class="cls-4" d="M130.46,114.62h-3.14a.14.14,0,0,1-.13-.05.17.17,0,0,1,0-.12.15.15,0,0,1,0-.11.17.17,0,0,1,.13,0h1.46v-2.51l-1.31.18h0a.17.17,0,0,1-.12,0,.16.16,0,0,1,0-.12.17.17,0,0,1,0-.1.11.11,0,0,1,.1,0l1.57-.22h0a.17.17,0,0,1,.1,0,.1.1,0,0,1,0,.09v2.75h1.31a.17.17,0,0,1,.12,0,.15.15,0,0,1,0,.11.17.17,0,0,1,0,.12A.16.16,0,0,1,130.46,114.62Zm-1.9-4.29a.29.29,0,0,1,.1-.23.32.32,0,0,1,.23-.09.33.33,0,0,1,.23.09.34.34,0,0,1,0,.46.33.33,0,0,1-.23.1.35.35,0,0,1-.24-.1A.32.32,0,0,1,128.56,110.33Z" transform="translate(-106.31 -78.76)"/><path class="cls-4" d="M134.67,112.21v-.47a2,2,0,0,0-.93.21,1.13,1.13,0,0,0-.56.6v1.75h1.32a.13.13,0,0,1,.12,0,.17.17,0,0,1,0,.22.13.13,0,0,1-.12.05h-2.41a.14.14,0,0,1-.13-.05.16.16,0,0,1-.05-.11.15.15,0,0,1,0-.11.14.14,0,0,1,.13,0h.72v-2.47l-.48.1h0a.17.17,0,0,1-.12-.05.21.21,0,0,1,0-.11.12.12,0,0,1,0-.09.15.15,0,0,1,.09-.06l.67-.13h.1c.05,0,.09,0,.11,0a.37.37,0,0,1,0,.17l0,.41a1.7,1.7,0,0,1,1.55-.69.43.43,0,0,1,.26.06.18.18,0,0,1,.08.17v.55a.25.25,0,0,1-.05.16.2.2,0,0,1-.14.06.19.19,0,0,1-.19-.21Z" transform="translate(-106.31 -78.76)"/><path class="cls-4" d="M137.07,112.31a.74.74,0,0,1,.36-.69,1.94,1.94,0,0,1,.91-.2,2.07,2.07,0,0,1,.66.1,1,1,0,0,1,.44.26v-.15a.17.17,0,0,1,0-.14.16.16,0,0,1,.12,0,.13.13,0,0,1,.12,0,.2.2,0,0,1,0,.14v.79a.16.16,0,0,1,0,.11.16.16,0,0,1-.24,0,.75.75,0,0,1,0-.26.7.7,0,0,0-.4-.37,2,2,0,0,0-.73-.12q-.84,0-.84.51a.44.44,0,0,0,.11.3.89.89,0,0,0,.39.17l1,.21a1.12,1.12,0,0,1,.58.27.78.78,0,0,1,.21.6.75.75,0,0,1-.35.67,1.69,1.69,0,0,1-.93.22,2.17,2.17,0,0,1-.69-.11,1.23,1.23,0,0,1-.54-.36v.24a.16.16,0,0,1,0,.12.12.12,0,0,1-.1,0,.15.15,0,0,1-.11,0,.16.16,0,0,1-.05-.11v-.89a.25.25,0,0,1,0-.16.12.12,0,0,1,.09,0,.18.18,0,0,1,.11,0,.3.3,0,0,1,0,.17.58.58,0,0,0,.16.4,1,1,0,0,0,.43.28,1.74,1.74,0,0,0,.61.11,1.42,1.42,0,0,0,.69-.14.47.47,0,0,0,.24-.43.5.5,0,0,0-.11-.33.61.61,0,0,0-.36-.17l-1-.2a1.27,1.27,0,0,1-.62-.27A.66.66,0,0,1,137.07,112.31Z" transform="translate(-106.31 -78.76)"/><path class="cls-4" d="M142.82,111.89v1.93a.46.46,0,0,0,.18.41.84.84,0,0,0,.49.14,2,2,0,0,0,.58-.1,1.35,1.35,0,0,0,.48-.24h0a.17.17,0,0,1,.11.06.27.27,0,0,1,0,.14.07.07,0,0,1,0,.06.84.84,0,0,1-.28.19,2.88,2.88,0,0,1-.47.16,2.48,2.48,0,0,1-.54.06,1.21,1.21,0,0,1-.5-.1,1,1,0,0,1-.37-.27.51.51,0,0,1-.14-.36v-2.07h-.57a.15.15,0,0,1-.13,0,.17.17,0,0,1-.05-.12.14.14,0,0,1,.05-.1.14.14,0,0,1,.12-.05h.58c0-.33,0-.56,0-.7a1,1,0,0,1,.06-.32.16.16,0,0,1,.16-.1.14.14,0,0,1,.12,0,.23.23,0,0,1,0,.13v.94h1.46a.13.13,0,0,1,.11.05.16.16,0,0,1,.05.11.17.17,0,0,1-.05.12.12.12,0,0,1-.11,0Z" transform="translate(-106.31 -78.76)"/><path class="cls-4" d="M148.67,113a1.49,1.49,0,0,1,.24-.85,1.51,1.51,0,0,1,.64-.56,2,2,0,0,1,.9-.19,1.86,1.86,0,0,1,1,.23.82.82,0,0,1,.37.75.41.41,0,0,1-.06.23.19.19,0,0,1-.18.08.17.17,0,0,1-.16-.14c0-.1,0-.26-.08-.49l0-.16a1.53,1.53,0,0,0-.39-.14,1.84,1.84,0,0,0-.41,0,1.87,1.87,0,0,0-.78.15,1.22,1.22,0,0,0-.51.44,1.36,1.36,0,0,0-.17.69,1.27,1.27,0,0,0,.37,1,1.37,1.37,0,0,0,1,.35,1.81,1.81,0,0,0,.61-.1,1.92,1.92,0,0,0,.49-.33.21.21,0,0,1,.16-.06.13.13,0,0,1,.1,0,.21.21,0,0,1,0,.12.25.25,0,0,1-.08.17,1.27,1.27,0,0,1-.58.35,2.14,2.14,0,0,1-1.64-.07,1.57,1.57,0,0,1-.62-.58A1.7,1.7,0,0,1,148.67,113Z" transform="translate(-106.31 -78.76)"/><path class="cls-4" d="M155.53,110a.12.12,0,0,1,.1,0,.1.1,0,0,1,0,.09v4.21H157a.17.17,0,0,1,.12,0,.21.21,0,0,1,0,.11.25.25,0,0,1,0,.12.16.16,0,0,1-.12,0h-3.15a.16.16,0,0,1-.14-.05.15.15,0,0,1,0-.22.13.13,0,0,1,.12,0h1.45v-4l-1.39.11h0a.16.16,0,0,1-.11,0,.17.17,0,0,1,0-.12.13.13,0,0,1,0-.1.11.11,0,0,1,.09,0l1.65-.15Z" transform="translate(-106.31 -78.76)"/><path class="cls-4" d="M160.94,112.69a1.15,1.15,0,0,0-.18-.7.71.71,0,0,0-.62-.25,2.19,2.19,0,0,0-.46,0,2.3,2.3,0,0,0-.42.14,1.65,1.65,0,0,1-.07.46.19.19,0,0,1-.19.15.21.21,0,0,1-.17-.08.33.33,0,0,1-.06-.21.64.64,0,0,1,.17-.42,1.14,1.14,0,0,1,.49-.3,2.17,2.17,0,0,1,.71-.1,1.22,1.22,0,0,1,.71.17.88.88,0,0,1,.36.48,2.64,2.64,0,0,1,.1.8v1.23a.24.24,0,0,0,.06.19.25.25,0,0,0,.15,0,.49.49,0,0,0,.22-.06,1.4,1.4,0,0,0,.18-.13.11.11,0,0,1,.09-.05.12.12,0,0,1,.1.05.16.16,0,0,1,0,.11.15.15,0,0,1,0,.1,1,1,0,0,1-.29.21.68.68,0,0,1-.34.08.53.53,0,0,1-.34-.1.59.59,0,0,1-.19-.37,1.59,1.59,0,0,1-.54.36,1.87,1.87,0,0,1-.76.15,1,1,0,0,1-.69-.25.87.87,0,0,1-.25-.65.73.73,0,0,1,.26-.61,1.38,1.38,0,0,1,.64-.28c.26,0,.6-.08,1-.11l.29,0Zm0,1.19V113l-.17,0q-.65.06-1,.12a1.09,1.09,0,0,0-.51.2.47.47,0,0,0-.19.41.54.54,0,0,0,.16.44.66.66,0,0,0,.44.14,1.8,1.8,0,0,0,.68-.14A1.48,1.48,0,0,0,160.94,113.88Z" transform="translate(-106.31 -78.76)"/><path class="cls-4" d="M163.75,112.31a.74.74,0,0,1,.36-.69,1.91,1.91,0,0,1,.91-.2,2.11,2.11,0,0,1,.66.1,1,1,0,0,1,.44.26v-.15a.17.17,0,0,1,0-.14.16.16,0,0,1,.12,0,.15.15,0,0,1,.12,0,.2.2,0,0,1,0,.14v.79a.16.16,0,0,1-.05.11.16.16,0,0,1-.24,0,.75.75,0,0,1,0-.26.73.73,0,0,0-.4-.37,2,2,0,0,0-.73-.12q-.84,0-.84.51a.44.44,0,0,0,.11.3.89.89,0,0,0,.39.17l1,.21a1.12,1.12,0,0,1,.59.27.78.78,0,0,1,.21.6.75.75,0,0,1-.35.67,1.69,1.69,0,0,1-.93.22,2.17,2.17,0,0,1-.69-.11,1.23,1.23,0,0,1-.54-.36v.24a.16.16,0,0,1,0,.12.13.13,0,0,1-.1,0,.15.15,0,0,1-.11,0,.16.16,0,0,1-.05-.11v-.89a.34.34,0,0,1,0-.16.16.16,0,0,1,.1,0,.18.18,0,0,1,.11,0,.3.3,0,0,1,0,.17.58.58,0,0,0,.16.4,1,1,0,0,0,.43.28,1.7,1.7,0,0,0,.61.11,1.42,1.42,0,0,0,.69-.14.47.47,0,0,0,.24-.43.5.5,0,0,0-.11-.33.61.61,0,0,0-.36-.17l-1.05-.2a1.28,1.28,0,0,1-.61-.27A.66.66,0,0,1,163.75,112.31Z" transform="translate(-106.31 -78.76)"/><path class="cls-4" d="M168.64,112.31a.74.74,0,0,1,.36-.69,1.87,1.87,0,0,1,.9-.2,2.18,2.18,0,0,1,.67.1.86.86,0,0,1,.43.26v-.15a.22.22,0,0,1,.05-.14.16.16,0,0,1,.12,0,.13.13,0,0,1,.11,0,.16.16,0,0,1,.05.14v.79a.16.16,0,0,1,0,.11.16.16,0,0,1-.24,0,.75.75,0,0,1,0-.26.72.72,0,0,0-.41-.37,1.9,1.9,0,0,0-.72-.12q-.84,0-.84.51a.44.44,0,0,0,.11.3.89.89,0,0,0,.39.17l1,.21a1.16,1.16,0,0,1,.59.27.78.78,0,0,1,.21.6.75.75,0,0,1-.35.67,1.7,1.7,0,0,1-.94.22,2.15,2.15,0,0,1-.68-.11,1.17,1.17,0,0,1-.54-.36v.24a.16.16,0,0,1,0,.12.13.13,0,0,1-.1,0,.15.15,0,0,1-.11,0,.16.16,0,0,1,0-.11v-.89a.25.25,0,0,1,0-.16.16.16,0,0,1,.1,0,.18.18,0,0,1,.11,0,.32.32,0,0,1,0,.17.64.64,0,0,0,.16.4,1,1,0,0,0,.44.28,1.7,1.7,0,0,0,.61.11,1.42,1.42,0,0,0,.69-.14.47.47,0,0,0,.24-.43.5.5,0,0,0-.11-.33.61.61,0,0,0-.36-.17l-1-.2a1.28,1.28,0,0,1-.61-.27A.66.66,0,0,1,168.64,112.31Z" transform="translate(-106.31 -78.76)"/><path class="cls-4" d="M173.38,110.82l3.47,1.42a.19.19,0,0,1,.07.08.31.31,0,0,1,0,.13.32.32,0,0,1,0,.14s0,.07-.07.08l-3.42,1.42h0a.13.13,0,0,1-.12-.07.2.2,0,0,1-.06-.14.13.13,0,0,1,.08-.13l3.19-1.29-3.22-1.31a.15.15,0,0,1-.11-.15.24.24,0,0,1,0-.14.16.16,0,0,1,.12-.06Z" transform="translate(-106.31 -78.76)"/></svg>