<svg id="Layer_1" data-name="Layer 1" xmlns="http://www.w3.org/2000/svg" viewBox="0 0 131.95 203"><defs><style>.cls-1{fill:#fff;}</style></defs><title>VIT logos_white</title><path class="cls-1" d="M82.68,30V175.27L97.8,190.39V144.18h16.5v62.7L140.41,233V144.18h16.5V233L183,206.88l-.54-62.7h17v46.21l15.12-15.12V30ZM191.09,90.35a.41.41,0,0,1,.08-.27.22.22,0,0,1,.17-.09.21.21,0,0,1,.18.07s.07.14.07.29a1,1,0,0,0,.28.7,1.9,1.9,0,0,0,.76.5,3,3,0,0,0,1.07.18,2.35,2.35,0,0,0,1.21-.25.8.8,0,0,0,.42-.75.89.89,0,0,0-.19-.57,1.09,1.09,0,0,0-.63-.3l-1.84-.35A2.3,2.3,0,0,1,191.6,89a1.15,1.15,0,0,1-.38-.91,1.28,1.28,0,0,1,.64-1.21,3.22,3.22,0,0,1,1.59-.36,3.8,3.8,0,0,1,1.16.18,1.57,1.57,0,0,1,.76.46v-.26a.35.35,0,0,1,.09-.25.28.28,0,0,1,.2-.09.29.29,0,0,1,.21.09.37.37,0,0,1,.08.25l0,1.38a.34.34,0,0,1-.07.2.28.28,0,0,1-.2.06c-.12,0-.19,0-.22-.13a1.49,1.49,0,0,1-.06-.46,1.24,1.24,0,0,0-.71-.65,3.37,3.37,0,0,0-1.27-.21q-1.47,0-1.47.9a.69.69,0,0,0,.2.51,1.44,1.44,0,0,0,.68.31l1.79.36a2,2,0,0,1,1,.47,1.4,1.4,0,0,1,.37,1.06,1.31,1.31,0,0,1-.61,1.17,3.05,3.05,0,0,1-1.65.39,3.6,3.6,0,0,1-1.2-.2,2.15,2.15,0,0,1-.94-.63v.42a.25.25,0,0,1-.07.21.25.25,0,0,1-.18.08.29.29,0,0,1-.19-.08.26.26,0,0,1-.08-.19Zm-4.28-3.41a.34.34,0,0,1,.08-.25.29.29,0,0,1,.21-.09.25.25,0,0,1,.2.09.33.33,0,0,1,.08.25v1.38a.34.34,0,0,1-.08.2.28.28,0,0,1-.2.06.21.21,0,0,1-.22-.13,1.57,1.57,0,0,1-.05-.46,1.27,1.27,0,0,0-.71-.65,3.43,3.43,0,0,0-1.28-.21c-1,0-1.46.3-1.46.9a.69.69,0,0,0,.19.51,1.48,1.48,0,0,0,.69.31l1.79.36a2.06,2.06,0,0,1,1,.47,1.43,1.43,0,0,1,.36,1.06,1.29,1.29,0,0,1-.61,1.17,3,3,0,0,1-1.64.39,3.66,3.66,0,0,1-1.21-.2,2.06,2.06,0,0,1-.93-.63v.42a.29.29,0,0,1-.07.21.25.25,0,0,1-.18.08.27.27,0,0,1-.19-.08.23.23,0,0,1-.09-.19l0-1.56a.41.41,0,0,1,.07-.27.24.24,0,0,1,.36,0,.46.46,0,0,1,.06.29,1.05,1.05,0,0,0,.28.7,1.94,1.94,0,0,0,.77.5,3,3,0,0,0,1.07.18,2.33,2.33,0,0,0,1.2-.25.8.8,0,0,0,.42-.75.84.84,0,0,0-.19-.57,1.09,1.09,0,0,0-.62-.3l-1.84-.35A2.26,2.26,0,0,1,183,89a1.15,1.15,0,0,1-.38-.91,1.27,1.27,0,0,1,.64-1.21,3.16,3.16,0,0,1,1.58-.36,3.75,3.75,0,0,1,1.16.18,1.61,1.61,0,0,1,.77.46ZM158.06,42.23h28.1v6.28l-3.68,0c-1.81,0-2.79,0-5.35,0,0,2.41-.06,4.34-.07,5.8s0,3.34,0,5.66q0,3.93,0,7.61c0,2.44,0,4.27.06,5.46h-10c0-1.15,0-2.9,0-5.26s0-5,0-7.83V54.5c0-1.49,0-3.5,0-6-2.51,0-3.55,0-5.53,0l-3.52,0Zm-.27,44.67a3.73,3.73,0,0,1,1.58-.34,3.14,3.14,0,0,1,1.73.42,1.42,1.42,0,0,1,.64,1.3.68.68,0,0,1-.1.4.36.36,0,0,1-.31.15c-.13,0-.23-.08-.28-.25a5,5,0,0,1-.14-.86l0-.28a3.26,3.26,0,0,0-.68-.24,3.38,3.38,0,0,0-.72-.07,3.27,3.27,0,0,0-1.38.27,2,2,0,0,0-.88.77,2.66,2.66,0,0,0,.34,3,2.47,2.47,0,0,0,1.74.6,2.45,2.45,0,0,0,1.92-.74.41.41,0,0,1,.28-.11.24.24,0,0,1,.18.07.33.33,0,0,1,.07.21.41.41,0,0,1-.13.29,2.43,2.43,0,0,1-1,.62,3.85,3.85,0,0,1-1.24.23,3.53,3.53,0,0,1-1.63-.36,2.54,2.54,0,0,1-1.09-1,3,3,0,0,1-.38-1.56,2.68,2.68,0,0,1,.41-1.5A2.81,2.81,0,0,1,157.79,86.9ZM151,43.15l1.41-2.86,1.41,2.86,3.15.45-2.28,2.22.54,3.14-2.82-1.48L149.56,49l.53-3.14-2.27-2.22Zm4.9,26.35c0,1.69,0,2.86,0,3.5h-7.07c0-.68,0-2.14,0-4.37s0-4.31,0-6.25c0-1.65,0-3.37,0-5.17s0-3.83-.06-6.08h7.07c0,2,0,3.86-.06,5.47s0,3.43,0,5.48C155.81,65.33,155.83,67.81,155.86,69.5ZM144.34,87.4a.31.31,0,0,1-.24-.09.32.32,0,0,1-.08-.21.28.28,0,0,1,.07-.19.31.31,0,0,1,.22-.08h1c0-.57,0-1,0-1.23a1.54,1.54,0,0,1,.11-.55.3.3,0,0,1,.29-.18.22.22,0,0,1,.2.08.46.46,0,0,1,.05.23v1.65h2.57a.23.23,0,0,1,.19.09.29.29,0,0,1,.08.19.3.3,0,0,1-.08.21.26.26,0,0,1-.2.08H146v3.37a.86.86,0,0,0,.32.73,1.51,1.51,0,0,0,.86.23,3.34,3.34,0,0,0,1-.17,2.7,2.7,0,0,0,.85-.42.11.11,0,0,1,.08,0,.24.24,0,0,1,.19.11.36.36,0,0,1,.1.24.14.14,0,0,1,0,.1,1.43,1.43,0,0,1-.5.34,3.93,3.93,0,0,1-.82.28,4.36,4.36,0,0,1-.93.11,2.21,2.21,0,0,1-.89-.18,1.68,1.68,0,0,1-.65-.47,1,1,0,0,1-.25-.64V87.4ZM120.26,41.56c.2.64,1.31,3.5,3.31,8.57s3.91,11,5.7,15.27h.16c1.89-4.62,3.83-10.63,5.84-15.62s3.09-7.73,3.26-8.22l8.89-.1c-.27.66-2.46,6.83-5.41,13.58s-5.59,12.83-7.94,18.22h-10q-3.69-8.52-7.11-16.32c-2.27-5.19-4.46-12.06-5.84-15.48Zm19.57,48.6a1.09,1.09,0,0,0-.63-.3l-1.83-.35A2.26,2.26,0,0,1,136.3,89a1.12,1.12,0,0,1-.38-.91,1.27,1.27,0,0,1,.64-1.21,3.16,3.16,0,0,1,1.58-.36,3.75,3.75,0,0,1,1.16.18,1.66,1.66,0,0,1,.77.46v-.26a.31.31,0,0,1,.08-.25.29.29,0,0,1,.21-.09.28.28,0,0,1,.2.09.37.37,0,0,1,.08.25v1.38a.34.34,0,0,1-.08.2.28.28,0,0,1-.2.06.21.21,0,0,1-.22-.13,1.88,1.88,0,0,1-.06-.46,1.25,1.25,0,0,0-.7-.65,3.47,3.47,0,0,0-1.28-.21c-1,0-1.46.3-1.46.9a.69.69,0,0,0,.19.51,1.49,1.49,0,0,0,.68.31l1.79.36a2.09,2.09,0,0,1,1,.47,1.43,1.43,0,0,1,.36,1.06,1.31,1.31,0,0,1-.61,1.17,3,3,0,0,1-1.64.39,3.61,3.61,0,0,1-1.21-.2,2.06,2.06,0,0,1-.93-.63v.42a.26.26,0,0,1-.08.21.23.23,0,0,1-.17.08.3.3,0,0,1-.2-.08.26.26,0,0,1-.08-.19V90.35a.41.41,0,0,1,.08-.27A.22.22,0,0,1,136,90a.25.25,0,0,1,.19.07.46.46,0,0,1,.06.29,1,1,0,0,0,.28.7,1.87,1.87,0,0,0,.77.5,3,3,0,0,0,1.07.18,2.33,2.33,0,0,0,1.2-.25.8.8,0,0,0,.42-.75A.84.84,0,0,0,139.83,90.16Zm-17.68-5.5a.54.54,0,0,1-.16.4.57.57,0,0,1-.41.17.57.57,0,0,1-.4-1,.56.56,0,0,1,.4-.17.54.54,0,0,1,.4.17A.51.51,0,0,1,122.15,84.66Zm-11.89,7a.29.29,0,0,1,.21-.08H112V87.45h-1.33a.32.32,0,0,1-.23-.08.29.29,0,0,1-.09-.21.29.29,0,0,1,.08-.19.25.25,0,0,1,.21-.08H112v-.5a2.18,2.18,0,0,1,.77-1.82A3.59,3.59,0,0,1,115,84a.45.45,0,0,1,.28.1.3.3,0,0,1,.12.25v.81a.42.42,0,0,1-.1.29.33.33,0,0,1-.24.1.32.32,0,0,1-.23-.09.35.35,0,0,1-.1-.27v-.64a3.62,3.62,0,0,0-1.25.26,1.18,1.18,0,0,0-.63.59,2.63,2.63,0,0,0-.18,1.06v.46h2.13a.25.25,0,0,1,.2.08.32.32,0,0,1,.08.2.28.28,0,0,1-.08.2.25.25,0,0,1-.21.08h-2.13v4.16h2.5a.22.22,0,0,1,.19.09.3.3,0,0,1,.08.2.32.32,0,0,1-.08.2.25.25,0,0,1-.2.08H110.5a.32.32,0,0,1-.24-.09.3.3,0,0,1-.08-.2A.32.32,0,0,1,110.26,91.69Zm-8.88,1.72L106,84.22a.19.19,0,0,1,.1-.1.28.28,0,0,1,.15,0,.32.32,0,0,1,.22.07.23.23,0,0,1,.1.2.3.3,0,0,1,0,.14l-4.59,9.16a.28.28,0,0,1-.25.17.33.33,0,0,1-.23-.09.3.3,0,0,1-.1-.21A.2.2,0,0,1,101.38,93.41Zm-9.8-4.8a.59.59,0,0,1,0-.23.6.6,0,0,1,0-.24.26.26,0,0,1,.13-.14l6-2.49.07,0a.29.29,0,0,1,.21.12.43.43,0,0,1,.09.26.22.22,0,0,1-.15.22l-5.58,2.26L98,90.65a.27.27,0,0,1,.19.27.4.4,0,0,1-.09.24.28.28,0,0,1-.21.11l-.1,0-6.08-2.5A.3.3,0,0,1,91.58,88.61ZM117,131.22l-9.55-5-9.54,5,1.82-10.63L92,113.07l10.67-1.55,4.77-9.67,4.78,9.67,10.67,1.55-7.72,7.52Zm7.58-39.12a.29.29,0,0,1-.21.08h-5.5a.31.31,0,0,1-.32-.3.27.27,0,0,1,.08-.19.29.29,0,0,1,.21-.08h2.57v-4.4l-2.3.31h0a.26.26,0,0,1-.21-.09.29.29,0,0,1,0-.38A.2.2,0,0,1,119,87l2.75-.38h.08a.35.35,0,0,1,.18,0,.24.24,0,0,1,.07.17v4.81h2.3a.25.25,0,0,1,.2.09.29.29,0,0,1,.07.2A.31.31,0,0,1,124.55,92.1Zm7.84-4.17a.44.44,0,0,1-.1.29.37.37,0,0,1-.24.1.29.29,0,0,1-.23-.1.36.36,0,0,1-.1-.26v-.83a3.56,3.56,0,0,0-1.63.36,2,2,0,0,0-1,1.06v3.06h2.32a.25.25,0,0,1,.2.08.32.32,0,0,1,.08.21.29.29,0,0,1-.08.19.26.26,0,0,1-.21.09H127.2a.32.32,0,0,1-.24-.09.3.3,0,0,1-.08-.2.32.32,0,0,1,.08-.2.29.29,0,0,1,.21-.08h1.27V87.28l-.85.17h-.08a.25.25,0,0,1-.2-.08.3.3,0,0,1-.08-.2.23.23,0,0,1,.06-.16.31.31,0,0,1,.15-.1l1.18-.23a.47.47,0,0,1,.16,0,.2.2,0,0,1,.2.09.57.57,0,0,1,.06.29l0,.72a3,3,0,0,1,2.71-1.21.79.79,0,0,1,.47.11.37.37,0,0,1,.14.31Zm25.81,43.29-9.54-5-9.54,5,1.82-10.63-7.72-7.52,10.67-1.55,4.77-9.67,4.77,9.67,10.67,1.55-7.72,7.52ZM171.06,92.1a.29.29,0,0,1-.21.08h-5.52a.32.32,0,0,1-.24-.09.3.3,0,0,1-.08-.2.32.32,0,0,1,.08-.2.29.29,0,0,1,.21-.08h2.55v-7l-2.44.19h0a.25.25,0,0,1-.2-.09.24.24,0,0,1-.08-.2.28.28,0,0,1,.06-.18.2.2,0,0,1,.16-.1l2.89-.26h.07a.3.3,0,0,1,.18.06.2.2,0,0,1,.07.16v7.38h2.35a.25.25,0,0,1,.2.09.29.29,0,0,1,.07.2A.31.31,0,0,1,171.06,92.1Zm2.8-1.37a1.33,1.33,0,0,1,.45-1.09,2.52,2.52,0,0,1,1.13-.48,17,17,0,0,1,1.79-.19l.5,0v-.14a2.05,2.05,0,0,0-.31-1.23,1.25,1.25,0,0,0-1.09-.43,4,4,0,0,0-.8.07,3.38,3.38,0,0,0-.72.24,2.81,2.81,0,0,1-.13.8.34.34,0,0,1-.33.27.38.38,0,0,1-.31-.14.57.57,0,0,1-.11-.36,1.09,1.09,0,0,1,.31-.74,1.93,1.93,0,0,1,.85-.52,4,4,0,0,1,1.25-.19,2.27,2.27,0,0,1,1.25.3,1.56,1.56,0,0,1,.63.85,4.62,4.62,0,0,1,.18,1.4v2.16a.47.47,0,0,0,.09.33.43.43,0,0,0,.27.08.74.74,0,0,0,.38-.11,1,1,0,0,0,.31-.23.25.25,0,0,1,.17-.08.23.23,0,0,1,.18.09.31.31,0,0,1,.07.2.24.24,0,0,1-.06.17,1.67,1.67,0,0,1-.51.37,1.39,1.39,0,0,1-.6.14,1,1,0,0,1-.59-.17,1,1,0,0,1-.33-.66,2.54,2.54,0,0,1-.95.63,3.39,3.39,0,0,1-1.33.26,1.64,1.64,0,0,1-1.21-.43A1.5,1.5,0,0,1,173.86,90.73Zm23.76,29.86,1.82,10.63-9.54-5-9.55,5,1.83-10.63-7.72-7.52,10.67-1.55,4.77-9.67,4.77,9.67,10.67,1.55Zm8.12-32a.23.23,0,0,1-.13.14l-6,2.49-.07,0a.25.25,0,0,1-.21-.13.36.36,0,0,1-.1-.25.22.22,0,0,1,.15-.22L205,88.41l-5.66-2.3a.27.27,0,0,1-.19-.27.4.4,0,0,1,.09-.24.28.28,0,0,1,.22-.11l.09,0,6.08,2.5a.26.26,0,0,1,.13.14.59.59,0,0,1,0,.23A.6.6,0,0,1,205.74,88.62Z" transform="translate(-82.68 -30)"/><path class="cls-1" d="M176.78,91.5a2.51,2.51,0,0,0,.95-.63V89.41l-.28,0c-.75.07-1.32.14-1.7.21a2,2,0,0,0-.89.35.85.85,0,0,0-.33.73.91.91,0,0,0,.29.76,1.14,1.14,0,0,0,.76.24A3.32,3.32,0,0,0,176.78,91.5Z" transform="translate(-82.68 -30)"/></svg>